# Blender 4.2.1 LTS
# www.blender.org
mtllib HitMarker.mtl
o Cube
v -0.100000 -0.050000 0.000000
v 0.000000 -0.050000 -0.100000
v 0.276777 0.050000 0.276777
v 0.276777 0.050000 -0.276777
v -0.276777 0.050000 0.276777
v 0.000000 0.050000 0.100000
v 0.100000 0.050000 0.000000
v 0.000000 -0.050000 0.100000
v -0.100000 0.050000 0.000000
v 0.000000 0.050000 -0.100000
v 0.100000 -0.050000 0.000000
v 0.000000 0.000000 -0.100000
v 0.100000 0.000000 0.000000
v 0.000000 -0.050000 0.000000
v -0.100000 0.000000 0.000000
v 0.000000 0.000000 0.100000
v -0.276777 0.050000 -0.276777
v -0.276777 -0.050000 -0.276777
v -0.276777 -0.050000 -0.176777
v -0.176777 -0.050000 -0.276777
v -0.276777 0.000000 -0.276777
v -0.276777 0.050000 -0.176777
v -0.176777 0.050000 -0.276777
v -0.176777 0.000000 -0.276777
v -0.276777 0.000000 -0.176777
v -0.276777 -0.050000 0.276777
v -0.276777 -0.050000 0.176777
v -0.276777 0.000000 0.276777
v -0.176777 0.050000 0.276777
v -0.176777 -0.050000 0.276777
v -0.276777 0.050000 0.176777
v -0.276777 0.000000 0.176777
v -0.176777 0.000000 0.276777
v 0.276777 -0.050000 0.276777
v 0.276777 0.000000 0.276777
v 0.176777 0.050000 0.276777
v 0.276777 0.050000 0.176777
v 0.176777 -0.050000 0.276777
v 0.276777 -0.050000 0.176777
v 0.276777 0.000000 0.176777
v 0.176777 0.000000 0.276777
v 0.276777 -0.050000 -0.276777
v 0.176777 -0.050000 -0.276777
v 0.276777 0.000000 -0.276777
v 0.276777 0.050000 -0.176777
v 0.176777 0.050000 -0.276777
v 0.276777 -0.050000 -0.176777
v 0.176777 0.000000 -0.276777
v 0.276777 0.000000 -0.176777
vn -0.7071 -0.0000 -0.7071
vn 0.7071 -0.0000 -0.7071
vn -0.0000 1.0000 -0.0000
vn 0.7071 -0.0000 0.7071
vn -0.7071 -0.0000 0.7071
vn -0.0000 -1.0000 -0.0000
vn -1.0000 -0.0000 -0.0000
vn -0.0000 -0.0000 -1.0000
vn -0.0000 -0.0000 1.0000
vn 1.0000 -0.0000 -0.0000
vt 0.500000 0.125000
vt 0.375000 0.125000
vt 0.625000 0.375000
vt 0.500000 0.375000
vt 0.625000 0.875000
vt 0.625000 0.750000
vt 0.625000 0.625000
vt 0.500000 0.625000
vt 0.375000 0.625000
vt 0.375000 0.750000
vt 0.375000 0.875000
vt 0.375000 0.000000
vt 0.375000 0.250000
vt 0.375000 0.375000
vt 0.625000 0.125000
vt 0.625000 0.000000
vt 0.375000 1.000000
vt 0.500000 0.875000
vt 0.625000 0.250000
vt 0.500000 0.250000
vt 0.625000 1.000000
vt 0.500000 1.000000
vt 0.500000 0.000000
vt 0.500000 0.750000
vt 0.625000 0.500000
vt 0.500000 0.500000
vt 0.375000 0.500000
s 0
usemtl Material
f 15/1/1 1/2/1 27/2/1 32/1/1
f 10/3/2 12/4/2 24/4/2 23/3/2
f 6/5/3 36/5/3 3/6/3
f 12/4/1 10/3/1 46/3/1 48/4/1
f 7/7/4 13/8/4 49/8/4 45/7/4
f 1/2/5 15/1/5 25/1/5 19/2/5
f 11/9/6 34/10/6 8/11/6
f 1/2/6 8/11/6 26/12/6
f 18/13/6 20/14/6 2/14/6
f 6/5/3 3/6/3 7/7/3
f 11/9/6 39/9/6 34/10/6
f 31/15/3 5/16/3 9/15/3
f 30/11/6 26/17/6 8/11/6
f 8/11/4 16/18/4 33/18/4 30/11/4
f 13/8/2 7/7/2 37/7/2 40/8/2
f 16/18/5 8/11/5 38/11/5 41/18/5
f 25/1/7 22/15/7 17/19/7 21/20/7
f 18/13/8 21/20/8 24/4/8 20/14/8
f 21/20/8 17/19/8 23/3/8 24/4/8
f 19/2/7 25/1/7 21/20/7 18/13/7
f 1/2/6 19/2/6 18/13/6
f 34/10/6 38/11/6 8/11/6
f 15/1/5 9/15/5 22/15/5 25/1/5
f 12/4/2 2/14/2 20/14/2 24/4/2
f 33/18/9 29/5/9 5/21/9 28/22/9
f 26/12/7 28/23/7 32/1/7 27/2/7
f 28/23/7 5/16/7 31/15/7 32/1/7
f 30/11/9 33/18/9 28/22/9 26/17/9
f 16/18/4 6/5/4 29/5/4 33/18/4
f 5/21/3 29/5/3 6/5/3
f 9/15/1 15/1/1 32/1/1 31/15/1
f 40/8/10 37/7/10 3/6/10 35/24/10
f 39/9/10 40/8/10 35/24/10 34/10/10
f 34/10/9 35/24/9 41/18/9 38/11/9
f 35/24/9 3/6/9 36/5/9 41/18/9
f 1/2/6 26/12/6 27/2/6
f 6/5/5 16/18/5 41/18/5 36/5/5
f 11/9/2 13/8/2 40/8/2 39/9/2
f 37/7/3 7/7/3 3/6/3
f 48/4/8 46/3/8 4/25/8 44/26/8
f 43/14/8 48/4/8 44/26/8 42/27/8
f 42/27/10 44/26/10 49/8/10 47/9/10
f 44/26/10 4/25/10 45/7/10 49/8/10
f 13/8/4 11/9/4 47/9/4 49/8/4
f 6/5/3 9/15/3 5/21/3
f 2/14/1 12/4/1 48/4/1 43/14/1
f 2/14/6 1/2/6 18/13/6
f 9/15/3 17/19/3 22/15/3
f 23/3/3 17/19/3 10/3/3
f 17/19/3 9/15/3 10/3/3
f 43/14/6 42/27/6 2/14/6
f 11/9/6 42/27/6 47/9/6
f 42/27/6 11/9/6 2/14/6
f 46/3/3 10/3/3 4/25/3
f 45/7/3 4/25/3 7/7/3
f 10/3/3 7/7/3 4/25/3
f 1/2/6 2/14/6 11/9/6
f 11/9/6 8/11/6 1/2/6
f 6/5/3 7/7/3 9/15/3
f 9/15/3 7/7/3 10/3/3
l 14 1
