# Blender 4.2.1 LTS
# www.blender.org
mtllib Dice w texture.mtl
o Cube
v 0.909963 1.000000 -0.909963
v 1.000000 0.909963 -0.909963
v 0.909963 0.909963 -1.000000
v 0.909963 -0.909963 -1.000000
v 1.000000 -0.909963 -0.909963
v 0.909963 -1.000000 -0.909963
v 0.909963 1.000000 0.909963
v 0.909963 0.909963 1.000000
v 1.000000 0.909963 0.909963
v 1.000000 -0.909963 0.909963
v 0.909963 -0.909963 1.000000
v 0.909963 -1.000000 0.909963
v -0.909963 1.000000 -0.909963
v -0.909963 0.909963 -1.000000
v -1.000000 0.909963 -0.909963
v -0.909963 -1.000000 -0.909963
v -1.000000 -0.909963 -0.909963
v -0.909963 -0.909963 -1.000000
v -1.000000 0.909963 0.909963
v -0.909963 0.909963 1.000000
v -0.909963 1.000000 0.909963
v -0.909963 -1.000000 0.909963
v -0.909963 -0.909963 1.000000
v -1.000000 -0.909963 0.909963
vn 0.5774 0.5774 -0.5774
vn 0.5774 -0.5774 -0.5774
vn 0.5774 0.5774 0.5774
vn 0.5774 -0.5774 0.5774
vn -0.5774 0.5774 -0.5774
vn -0.5774 -0.5774 -0.5774
vn -0.5774 0.5774 0.5774
vn -0.5774 -0.5774 0.5774
vn 0.7071 0.7071 -0.0000
vn 0.7071 -0.0000 -0.7071
vn 0.7071 -0.0000 0.7071
vn -0.7071 -0.0000 0.7071
vn -0.7071 0.7071 -0.0000
vn 1.0000 -0.0000 -0.0000
vn 0.7071 -0.7071 -0.0000
vn -0.0000 1.0000 -0.0000
vn -0.0000 -0.0000 -1.0000
vn -0.7071 -0.7071 -0.0000
vn -1.0000 -0.0000 -0.0000
vn -0.0000 0.7071 0.7071
vn -0.0000 -0.7071 0.7071
vn -0.0000 0.7071 -0.7071
vn -0.0000 -1.0000 -0.0000
vn -0.7071 -0.0000 -0.7071
vn -0.0000 -0.7071 -0.7071
vn -0.0000 -0.0000 1.0000
vt 0.370596 0.690266
vt 0.370596 0.666989
vt 0.390755 0.678627
vt 0.391400 0.666989
vt 0.411558 0.678628
vt 0.391400 0.690266
vt 0.349793 0.678627
vt 0.369951 0.666989
vt 0.369951 0.690266
vt 0.287383 0.690266
vt 0.287383 0.666989
vt 0.307542 0.678628
vt 0.432361 0.666989
vt 0.432361 0.690266
vt 0.412203 0.678628
vt 0.433006 0.678627
vt 0.453164 0.666989
vt 0.453164 0.690266
vt 0.308187 0.690266
vt 0.308187 0.666989
vt 0.328345 0.678628
vt 0.349148 0.690266
vt 0.328990 0.678628
vt 0.349148 0.666989
vt 0.095364 0.666989
vt 0.095364 0.999677
vt 0.072088 0.999677
vt 0.072088 0.666989
vt 0.048166 0.666989
vt 0.071443 0.666989
vt 0.071443 0.999677
vt 0.048166 0.999677
vt 0.167775 0.666989
vt 0.191051 0.666989
vt 0.191051 0.999677
vt 0.167775 0.999677
vt 0.000323 0.666989
vt 0.023599 0.666989
vt 0.023599 0.999677
vt 0.000323 0.999677
vt 0.239540 0.999677
vt 0.239540 0.666989
vt 0.262817 0.666989
vt 0.262817 0.999677
vt 0.999677 0.333011
vt 0.666989 0.333011
vt 0.666989 0.000323
vt 0.999677 0.000323
vt 0.119286 0.666989
vt 0.119286 0.999677
vt 0.096009 0.999677
vt 0.096009 0.666989
vt 0.000323 0.333011
vt 0.000323 0.000323
vt 0.333011 0.000323
vt 0.333011 0.333011
vt 0.666344 0.000323
vt 0.666344 0.333011
vt 0.333656 0.333011
vt 0.333656 0.000323
vt 0.214973 0.666989
vt 0.214973 0.999677
vt 0.191696 0.999677
vt 0.191696 0.666989
vt 0.000323 0.666344
vt 0.000323 0.333656
vt 0.333011 0.333656
vt 0.333011 0.666344
vt 0.143208 0.666989
vt 0.143208 0.999677
vt 0.119931 0.999677
vt 0.119931 0.666989
vt 0.167130 0.666989
vt 0.167130 0.999677
vt 0.143853 0.999677
vt 0.143853 0.666989
vt 0.263462 0.999677
vt 0.263462 0.666989
vt 0.286738 0.666989
vt 0.286738 0.999677
vt 0.666344 0.666344
vt 0.333656 0.666344
vt 0.333656 0.333656
vt 0.666344 0.333656
vt 0.024244 0.666989
vt 0.047521 0.666989
vt 0.047521 0.999677
vt 0.024244 0.999677
vt 0.238895 0.666989
vt 0.238895 0.999677
vt 0.215618 0.999677
vt 0.215618 0.666989
vt 0.999677 0.666344
vt 0.666989 0.666344
vt 0.666989 0.333656
vt 0.999677 0.333656
s 0
usemtl Material.002
f 1/1/1 2/2/1 3/3/1
f 4/4/2 5/5/2 6/6/2
f 7/7/3 8/8/3 9/9/3
f 10/10/4 11/11/4 12/12/4
f 13/13/5 14/14/5 15/15/5
f 16/16/6 17/17/6 18/18/6
f 19/19/7 20/20/7 21/21/7
f 22/22/8 23/23/8 24/24/8
f 1/25/9 7/26/9 9/27/9 2/28/9
f 5/29/10 4/30/10 3/31/10 2/32/10
f 11/33/11 10/34/11 9/35/11 8/36/11
f 24/37/12 23/38/12 20/39/12 19/40/12
f 15/41/13 19/42/13 21/43/13 13/44/13
f 2/45/14 9/46/14 10/47/14 5/48/14
f 5/49/15 10/50/15 12/51/15 6/52/15
f 21/53/16 7/54/16 1/55/16 13/56/16
f 18/57/17 14/58/17 3/59/17 4/60/17
f 16/61/18 22/62/18 24/63/18 17/64/18
f 19/65/19 15/66/19 17/67/19 24/68/19
f 7/69/20 21/70/20 20/71/20 8/72/20
f 11/73/21 23/74/21 22/75/21 12/76/21
f 3/77/22 14/78/22 13/79/22 1/80/22
f 12/81/23 22/82/23 16/83/23 6/84/23
f 18/85/24 17/86/24 15/87/24 14/88/24
f 6/89/25 16/90/25 18/91/25 4/92/25
f 8/93/26 20/94/26 23/95/26 11/96/26
